<svg width="252" height="32" viewBox="0 0 252 32" fill="none" xmlns="http://www.w3.org/2000/svg">
<path d="M2.44791 26.608C3.09716 26.608 3.71981 26.8659 4.1789 27.325C4.63798 27.7841 4.89589 28.4067 4.89589 29.056C4.89589 29.7052 4.63798 30.3279 4.1789 30.7869C3.71981 31.246 3.09716 31.5039 2.44791 31.5039C1.79867 31.5039 1.17602 31.246 0.716932 30.7869C0.257847 30.3279 -6.39712e-05 29.7052 -6.39712e-05 29.056C-6.39712e-05 28.4067 0.257847 27.7841 0.716932 27.325C1.17602 26.8659 1.79867 26.608 2.44791 26.608ZM10.6078 21.712C11.6899 21.712 12.7277 22.1419 13.4928 22.907C14.258 23.6722 14.6878 24.7099 14.6878 25.792C14.6878 26.8741 14.258 27.9118 13.4928 28.677C12.7277 29.4421 11.6899 29.8719 10.6078 29.8719C9.52577 29.8719 8.48801 29.4421 7.72287 28.677C6.95773 27.9118 6.52788 26.8741 6.52788 25.792C6.52788 24.7099 6.95773 23.6722 7.72287 22.907C8.48801 22.1419 9.52577 21.712 10.6078 21.712ZM20.3998 20.08C18.4577 20.08 16.6951 19.264 15.5038 17.8769C14.3124 19.264 12.5499 20.08 10.6078 20.08C7.40915 20.08 4.74901 17.7789 4.19414 14.7598C2.96166 14.2831 1.90184 13.4454 1.15346 12.3563C0.405081 11.2673 0.00302293 9.97757 -6.39712e-05 8.65614C-6.39712e-05 6.92482 0.687699 5.26442 1.91193 4.04019C3.13615 2.81596 4.79656 2.1282 6.52788 2.1282C6.95219 2.1282 7.34387 2.17716 7.78451 2.24244C8.97586 1.16533 10.5262 0.496216 12.2398 0.496216C14.1819 0.496216 15.9444 1.31221 17.1358 2.6994C18.3271 1.31221 20.0897 0.496216 22.0317 0.496216C25.2304 0.496216 27.8906 2.79731 28.4454 5.81649C29.6779 6.29312 30.7377 7.13082 31.4861 8.21991C32.2345 9.30899 32.6366 10.5987 32.6396 11.9201C32.6396 13.6514 31.9519 15.3118 30.7276 16.5361C29.5034 17.7603 27.843 18.4481 26.1117 18.4481L24.8551 18.3338C23.6637 19.4109 22.1133 20.08 20.3998 20.08Z" fill="#F8FAFC"/>
<path d="M120.233 31.8759C119.021 31.8759 118.056 31.5176 117.339 30.801C116.623 30.0568 116.264 29.1473 116.264 28.0723V4.13436C116.264 2.97674 116.609 1.99827 117.298 1.19896C118.014 0.399655 119.02 0 120.316 0C121.584 0 122.535 0.399655 123.169 1.19896C123.83 1.99827 124.161 2.99052 124.161 4.17571V16.7028L124.285 16.7442C124.423 15.5865 124.781 14.5254 125.36 13.5607C125.939 12.5685 126.752 11.7692 127.799 11.1628C128.847 10.5564 130.128 10.2532 131.644 10.2532C133.684 10.2532 135.324 10.8183 136.564 11.9483C137.804 13.0784 138.424 14.6219 138.424 16.5788C138.424 17.9294 138.149 19.0043 137.598 19.8036C137.074 20.5753 136.357 21.1128 135.448 21.416C134.538 21.7192 133.532 21.857 132.43 21.8294V22.5323C134.883 22.5323 136.619 23.0284 137.639 24.0207C138.686 24.9853 139.21 26.2119 139.21 27.7002C139.21 29.0784 138.797 30.1395 137.97 30.8837C137.143 31.6279 136.151 31.9862 134.993 31.9586C133.725 31.9311 132.678 31.559 131.851 30.8423C131.024 30.1257 130.335 29.161 129.784 27.9483L128.006 24.186C127.648 23.4418 127.179 22.9044 126.6 22.5736C126.049 22.2429 125.236 22.1188 124.161 22.2015V28.0723C124.161 29.1473 123.803 30.0568 123.086 30.801C122.397 31.5176 121.446 31.8759 120.233 31.8759ZM125.029 19.3902C125.029 19.776 125.222 20.0654 125.608 20.2584C126.021 20.4238 126.862 20.5064 128.13 20.5064C129.37 20.5064 130.197 20.4238 130.611 20.2584C131.024 20.093 131.231 19.8036 131.231 19.3902C131.231 19.0043 131.024 18.7149 130.611 18.5219C130.197 18.329 129.384 18.2325 128.171 18.2325C126.876 18.2325 126.021 18.329 125.608 18.5219C125.222 18.7149 125.029 19.0043 125.029 19.3902Z" fill="#F8FAFC"/>
<path d="M97.6648 31.8759C96.452 31.8759 95.4736 31.5176 94.7294 30.801C94.0128 30.0568 93.6544 29.1473 93.6544 28.0723V14.3876C93.6544 13.23 93.999 12.2515 94.6881 11.4522C95.3771 10.6529 96.3694 10.2532 97.6648 10.2532C98.9327 10.2532 99.8973 10.6529 100.559 11.4522C101.22 12.2515 101.551 13.2575 101.551 14.4703V16.5375H102.295C102.295 14.9664 102.571 13.7261 103.122 12.8165C103.701 11.907 104.431 11.2592 105.313 10.8734C106.195 10.4599 107.077 10.2532 107.959 10.2532C110.082 10.2532 111.639 11.025 112.631 12.5685C113.623 14.0844 114.12 16.248 114.12 19.0594V28.0723C114.12 29.1473 113.761 30.0568 113.045 30.801C112.328 31.5176 111.363 31.8759 110.151 31.8759C108.91 31.8759 107.918 31.5176 107.174 30.801C106.457 30.0568 106.099 29.1473 106.099 28.0723V20.7545C106.099 19.7623 105.906 18.9905 105.52 18.4393C105.162 17.888 104.624 17.6124 103.908 17.6124C103.081 17.6124 102.474 17.9156 102.089 18.5219C101.73 19.1283 101.551 19.9001 101.551 20.8372V28.0723C101.551 29.1473 101.207 30.0568 100.517 30.801C99.8284 31.5176 98.8775 31.8759 97.6648 31.8759Z" fill="#F8FAFC"/>
<path d="M83.355 5.45736C83.355 4.27217 83.7134 3.32127 84.43 2.60465C85.1742 1.86046 86.194 1.48837 87.4894 1.48837C88.8675 1.48837 89.8873 1.84668 90.5488 2.5633C91.2379 3.27993 91.5824 4.23083 91.5824 5.41601C91.5824 6.57364 91.2379 7.51076 90.5488 8.22738C89.8873 8.91644 88.8675 9.26097 87.4894 9.26097C86.1389 9.26097 85.1052 8.91644 84.3886 8.22738C83.6996 7.51076 83.355 6.58742 83.355 5.45736ZM87.4894 31.8759C86.194 31.8759 85.2293 31.5176 84.5953 30.801C83.9614 30.0844 83.6444 29.1886 83.6444 28.1137V13.9741C83.6444 12.789 83.9614 11.8518 84.5953 11.1628C85.2293 10.4737 86.194 10.1292 87.4894 10.1292C88.7848 10.1292 89.7495 10.4737 90.3835 11.1628C91.0449 11.8518 91.3757 12.7614 91.3757 13.8915V28.1137C91.3757 29.1886 91.0312 30.0844 90.3421 30.801C89.6806 31.5176 88.7297 31.8759 87.4894 31.8759Z" fill="#F8FAFC"/>
<path d="M64.8383 31.8759C63.6255 31.8759 62.6608 31.5176 61.9442 30.801C61.2551 30.0568 60.9106 29.1473 60.9106 28.0723V4.13436C60.9106 2.97674 61.2551 1.99827 61.9442 1.19896C62.6608 0.399655 63.6669 0 64.9623 0C66.2302 0 67.1811 0.399655 67.815 1.19896C68.4765 1.99827 68.8072 2.99052 68.8072 4.17571V16.5375H69.5514C69.5514 14.9664 69.8271 13.7261 70.3783 12.8165C70.9571 11.907 71.6875 11.2592 72.5695 10.8734C73.4791 10.4599 74.4024 10.2532 75.3395 10.2532C76.9933 10.2532 78.2474 10.6667 79.1018 11.4935C79.9838 12.2928 80.5764 13.3678 80.8796 14.7183C81.2103 16.0689 81.3757 17.5435 81.3757 19.1421V28.0723C81.3757 29.2024 81.0036 30.1257 80.2594 30.8423C79.5428 31.5314 78.5781 31.8759 77.3654 31.8759C76.1251 31.8759 75.1466 31.5314 74.43 30.8423C73.7134 30.1257 73.355 29.2024 73.355 28.0723V20.7545C73.355 19.7623 73.1621 18.9905 72.7762 18.4393C72.3904 17.888 71.8253 17.6124 71.0812 17.6124C70.337 17.6124 69.7719 17.9156 69.3861 18.5219C69.0002 19.1283 68.8072 19.9001 68.8072 20.8372V28.0723C68.8072 29.1473 68.4489 30.0568 67.7323 30.801C67.0433 31.5176 66.0786 31.8759 64.8383 31.8759Z" fill="#F8FAFC"/>
<path d="M51.4613 32C50.0005 32 48.6775 31.6692 47.4923 31.0077C46.3347 30.3462 45.4252 29.4091 44.7637 28.1964C44.1022 26.956 43.7714 25.509 43.7714 23.8553V16.5788L42.2417 16.7855C41.4148 16.8958 40.6844 16.6064 40.0505 15.9173C39.4166 15.2282 39.0996 14.36 39.0996 13.3126C39.0996 12.2653 39.4166 11.4108 40.0505 10.7493C40.6844 10.0603 41.4148 9.77088 42.2417 9.88113L43.7714 10.0878L43.7301 7.27648C43.7025 6.17398 44.0195 5.30576 44.681 4.67183C45.3425 4.01033 46.3072 3.67958 47.575 3.67958C48.8429 3.67958 49.8214 4.01033 50.5104 4.67183C51.1995 5.30576 51.5165 6.17398 51.4613 7.27648L51.3787 10.0878L53.5699 9.79844C55.0582 9.57794 56.1883 9.85356 56.96 10.6253C57.7318 11.3695 58.1177 12.2653 58.1177 13.3126C58.1177 14.36 57.7318 15.2696 56.96 16.0413C56.2159 16.7855 55.1271 17.0611 53.6939 16.8682L51.3787 16.5788V22.739C51.3787 23.0973 51.5027 23.4281 51.7507 23.7312C51.9988 24.0069 52.302 24.0896 52.6603 23.9793C53.0737 23.8691 53.501 23.6348 53.942 23.2765C54.4105 22.9182 55.0031 22.739 55.7197 22.739C56.7947 22.739 57.6215 23.1249 58.2004 23.8966C58.7792 24.6684 59.0686 25.6193 59.0686 26.7493C59.0686 27.6313 58.7516 28.4858 58.1177 29.3126C57.5113 30.1119 56.6431 30.7597 55.513 31.2558C54.383 31.7519 53.0324 32 51.4613 32Z" fill="#F8FAFC"/>
<path d="M231.107 20.3823C231.107 18.2049 231.535 16.2893 232.389 14.6356C233.271 12.9818 234.511 11.6864 236.11 10.7493C237.736 9.81216 239.666 9.3436 241.898 9.3436C243.635 9.3436 245.192 9.66057 246.57 10.2945C247.976 10.9284 249.078 11.7829 249.877 12.8578C250.677 13.9052 251.076 15.0628 251.076 16.3307C251.076 17.6537 250.691 18.5908 249.919 19.142C249.147 19.6933 248.003 19.9689 246.487 19.9689H237.805C237.805 20.6855 238.081 21.2781 238.632 21.7467C239.211 22.2153 240.175 22.4495 241.526 22.4495C242.215 22.4495 242.849 22.3806 243.428 22.2428C244.034 22.105 244.641 21.981 245.247 21.8707C245.881 21.7329 246.584 21.664 247.355 21.664C248.458 21.664 249.368 22.0637 250.084 22.863C250.801 23.6347 251.159 24.7096 251.159 26.0878C251.159 27.714 250.318 28.9818 248.637 29.8914C246.983 30.8009 244.806 31.2557 242.105 31.2557C240.203 31.2557 238.411 30.8836 236.73 30.1394C235.076 29.3953 233.726 28.2239 232.679 26.6252C231.631 24.9991 231.107 22.9181 231.107 20.3823ZM244.503 18.6046C244.916 18.6046 245.054 18.4116 244.916 18.0258C244.806 17.6399 244.475 17.2402 243.924 16.8268C243.373 16.4134 242.573 16.2066 241.526 16.2066C240.313 16.2066 239.404 16.4685 238.797 16.9922C238.219 17.5159 237.929 18.0533 237.929 18.6046H244.503Z" fill="#F8FAFC"/>
<path d="M220.903 31.2557C218.753 31.2557 216.852 30.8147 215.198 29.9327C213.544 29.0232 212.249 27.7415 211.312 26.0878C210.374 24.434 209.906 22.4909 209.906 20.2583C209.906 18.0258 210.374 16.0826 211.312 14.4289C212.249 12.7751 213.544 11.4935 215.198 10.5839C216.879 9.67435 218.809 9.21957 220.986 9.21957C222.695 9.21957 224.197 9.39872 225.492 9.75704C226.815 10.1153 227.849 10.6528 228.593 11.3694C229.365 12.0861 229.751 12.9818 229.751 14.0568C229.751 15.3522 229.42 16.372 228.759 17.1162C228.097 17.8328 227.146 18.1911 225.906 18.1911C225.079 18.1911 224.252 18.0671 223.425 17.819C222.626 17.571 221.592 17.4469 220.325 17.4469C219.277 17.4469 218.395 17.6123 217.679 17.9431C216.962 18.2738 216.604 18.8802 216.604 19.7622C216.604 20.6718 216.962 21.3333 217.679 21.7467C218.395 22.1326 219.277 22.3255 220.325 22.3255C221.179 22.3255 221.896 22.2428 222.474 22.0774C223.053 21.9121 223.604 21.7467 224.128 21.5813C224.652 21.4159 225.244 21.3333 225.906 21.3333C227.312 21.3333 228.345 21.7467 229.007 22.5736C229.696 23.3729 230.04 24.4065 230.04 25.6743C230.04 26.7493 229.641 27.7139 228.841 28.5684C228.042 29.3953 226.953 30.0568 225.575 30.5529C224.197 31.0214 222.64 31.2557 220.903 31.2557Z" fill="#F8FAFC"/>
<path d="M200.382 4.71311C200.382 3.52792 200.741 2.57702 201.457 1.8604C202.201 1.11621 203.221 0.744121 204.517 0.744121C205.895 0.744121 206.915 1.10243 207.576 1.81905C208.265 2.53568 208.61 3.48658 208.61 4.67177C208.61 5.82939 208.265 6.76651 207.576 7.48313C206.915 8.17219 205.895 8.51672 204.517 8.51672C203.166 8.51672 202.133 8.17219 201.416 7.48313C200.727 6.76651 200.382 5.84317 200.382 4.71311ZM204.517 31.1317C203.221 31.1317 202.257 30.7734 201.623 30.0568C200.989 29.3401 200.672 28.4444 200.672 27.3694V13.2299C200.672 12.0447 200.989 11.1076 201.623 10.4185C202.257 9.72947 203.221 9.38494 204.517 9.38494C205.812 9.38494 206.777 9.72947 207.411 10.4185C208.072 11.1076 208.403 12.0171 208.403 13.1472V27.3694C208.403 28.4444 208.058 29.3401 207.369 30.0568C206.708 30.7734 205.757 31.1317 204.517 31.1317Z" fill="#F8FAFC"/>
<path d="M176.224 31.1317C174.625 31.1317 173.316 30.608 172.296 29.5606C171.304 28.5133 170.394 26.7906 169.567 24.3927L166.425 15.049C166.067 14.0016 166.053 12.9405 166.384 11.8656C166.715 10.7906 167.473 10.0602 168.658 9.67434C169.76 9.28847 170.766 9.31603 171.676 9.75703C172.586 10.198 173.219 10.956 173.578 12.0309L176.968 22.1601C177.354 23.3453 177.754 24.1446 178.167 24.558C178.58 24.9439 179.132 25.0266 179.821 24.8061C180.4 24.6132 180.758 24.1997 180.896 23.5658C181.061 22.9043 180.868 21.7742 180.317 20.1756L178.622 15.049C178.263 13.9741 178.25 12.9129 178.58 11.8656C178.939 10.7906 179.71 10.0602 180.896 9.67434C181.998 9.28847 183.004 9.31603 183.914 9.75703C184.823 10.198 185.457 10.956 185.816 12.0309L189.288 22.6149C189.509 23.2488 189.853 23.8276 190.322 24.3513C190.791 24.875 191.397 25.0266 192.141 24.8061C192.72 24.6132 193.092 24.2273 193.257 23.6485C193.45 23.0697 193.423 22.3944 193.175 21.6227C192.844 20.5753 192.472 19.7484 192.058 19.142C191.673 18.5357 191.287 18.012 190.901 17.571C190.542 17.13 190.239 16.6614 189.991 16.1653C189.771 15.6692 189.633 14.9939 189.578 14.1395C189.523 13.2575 189.702 12.4857 190.115 11.8242C190.556 11.1352 191.135 10.5977 191.852 10.2118C192.596 9.82594 193.409 9.633 194.291 9.633C195.642 9.633 196.73 10.0878 197.557 10.9973C198.412 11.8793 198.839 12.9267 198.839 14.1395C198.839 14.5805 198.77 15.1593 198.632 15.8759C198.494 16.5925 198.315 17.254 198.095 17.8604L196.358 22.3668C196 23.3591 195.586 24.3789 195.118 25.4263C194.677 26.4461 194.153 27.3832 193.547 28.2376C192.968 29.0921 192.293 29.7949 191.521 30.3462C190.749 30.8698 189.853 31.1317 188.834 31.1317C187.07 31.1317 185.65 30.6769 184.575 29.7673C183.528 28.8578 182.701 27.3556 182.095 25.2609H181.681C181.323 26.9698 180.73 28.3754 179.903 29.4779C179.076 30.5804 177.85 31.1317 176.224 31.1317Z" fill="#F8FAFC"/>
<path d="M158.032 31.2557C156.571 31.2557 155.248 30.925 154.063 30.2635C152.905 29.602 151.995 28.6649 151.334 27.4521C150.672 26.2118 150.342 24.7648 150.342 23.111V15.8345L148.812 16.0413C147.985 16.1515 147.255 15.8621 146.621 15.173C145.987 14.484 145.67 13.6158 145.67 12.5684C145.67 11.521 145.987 10.6666 146.621 10.0051C147.255 9.31603 147.985 9.02663 148.812 9.13688L150.342 9.3436L150.3 6.53223C150.273 5.42973 150.59 4.56152 151.251 3.92758C151.913 3.26608 152.877 2.93533 154.145 2.93533C155.413 2.93533 156.392 3.26608 157.081 3.92758C157.77 4.56152 158.087 5.42973 158.032 6.53223L157.949 9.3436L160.14 9.05419C161.629 8.83369 162.759 9.10932 163.53 9.88106C164.302 10.6252 164.688 11.521 164.688 12.5684C164.688 13.6158 164.302 14.5253 163.53 15.2971C162.786 16.0413 161.697 16.3169 160.264 16.124L157.949 15.8345V21.9947C157.949 22.3531 158.073 22.6838 158.321 22.987C158.569 23.2626 158.872 23.3453 159.231 23.2351C159.644 23.1248 160.071 22.8905 160.512 22.5322C160.981 22.1739 161.573 21.9947 162.29 21.9947C163.365 21.9947 164.192 22.3806 164.771 23.1524C165.349 23.9241 165.639 24.875 165.639 26.0051C165.639 26.8871 165.322 27.7415 164.688 28.5684C164.082 29.3677 163.213 30.0154 162.083 30.5115C160.953 31.0077 159.603 31.2557 158.032 31.2557Z" fill="#F8FAFC"/>
</svg>
