<svg width="252" height="32" viewBox="0 0 252 32" fill="none" xmlns="http://www.w3.org/2000/svg">
<path d="M2.44798 26.608C3.09722 26.608 3.71988 26.8659 4.17896 27.325C4.63805 27.7841 4.89596 28.4067 4.89596 29.056C4.89596 29.7052 4.63805 30.3279 4.17896 30.7869C3.71988 31.246 3.09722 31.5039 2.44798 31.5039C1.79873 31.5039 1.17608 31.246 0.716996 30.7869C0.257911 30.3279 0 29.7052 0 29.056C0 28.4067 0.257911 27.7841 0.716996 27.325C1.17608 26.8659 1.79873 26.608 2.44798 26.608ZM10.6079 21.712C11.69 21.712 12.7277 22.1419 13.4929 22.907C14.258 23.6722 14.6879 24.7099 14.6879 25.792C14.6879 26.8741 14.258 27.9118 13.4929 28.677C12.7277 29.4421 11.69 29.8719 10.6079 29.8719C9.52583 29.8719 8.48808 29.4421 7.72293 28.677C6.95779 27.9118 6.52794 26.8741 6.52794 25.792C6.52794 24.7099 6.95779 23.6722 7.72293 22.907C8.48808 22.1419 9.52583 21.712 10.6079 21.712ZM20.3998 20.08C18.4578 20.08 16.6952 19.264 15.5039 17.8769C14.3125 19.264 12.55 20.08 10.6079 20.08C7.40921 20.08 4.74908 17.7789 4.1942 14.7598C2.96173 14.2831 1.90191 13.4454 1.15353 12.3563C0.405145 11.2673 0.00308691 9.97757 0 8.65614C0 6.92482 0.687763 5.26442 1.91199 4.04019C3.13622 2.81596 4.79662 2.1282 6.52794 2.1282C6.95226 2.1282 7.34393 2.17716 7.78457 2.24244C8.97592 1.16533 10.5263 0.496216 12.2399 0.496216C14.182 0.496216 15.9445 1.31221 17.1358 2.6994C18.3272 1.31221 20.0897 0.496216 22.0318 0.496216C25.2305 0.496216 27.8906 2.79732 28.4455 5.81649C29.678 6.29312 30.7378 7.13082 31.4862 8.21991C32.2346 9.30899 32.6366 10.5987 32.6397 11.9201C32.6397 13.6514 31.9519 15.3118 30.7277 16.5361C29.5035 17.7603 27.8431 18.4481 26.1118 18.4481L24.8551 18.3338C23.6638 19.4109 22.1134 20.08 20.3998 20.08Z" fill="url(#paint0_linear_173_59504)"/>
<path d="M120.233 31.876C119.021 31.876 118.056 31.5177 117.339 30.801C116.623 30.0568 116.264 29.1473 116.264 28.0723V4.13437C116.264 2.97674 116.609 1.99828 117.298 1.19897C118.015 0.399655 119.021 0 120.316 0C121.584 0 122.535 0.399655 123.169 1.19897C123.83 1.99828 124.161 2.99052 124.161 4.17571V16.7028L124.285 16.7442C124.423 15.5866 124.781 14.5254 125.36 13.5607C125.939 12.5685 126.752 11.7692 127.799 11.1628C128.847 10.5564 130.128 10.2532 131.644 10.2532C133.684 10.2532 135.324 10.8183 136.564 11.9483C137.804 13.0784 138.425 14.6219 138.425 16.5788C138.425 17.9294 138.149 19.0043 137.598 19.8036C137.074 20.5754 136.357 21.1128 135.448 21.416C134.538 21.7192 133.532 21.857 132.43 21.8295V22.5323C134.883 22.5323 136.619 23.0284 137.639 24.0207C138.686 24.9854 139.21 26.2119 139.21 27.7003C139.21 29.0784 138.797 30.1395 137.97 30.8837C137.143 31.6279 136.151 31.9862 134.993 31.9587C133.725 31.9311 132.678 31.559 131.851 30.8424C131.024 30.1258 130.335 29.1611 129.784 27.9483L128.006 24.186C127.648 23.4419 127.179 22.9044 126.6 22.5736C126.049 22.2429 125.236 22.1189 124.161 22.2015V28.0723C124.161 29.1473 123.803 30.0568 123.086 30.801C122.397 31.5177 121.446 31.876 120.233 31.876ZM125.029 19.3902C125.029 19.7761 125.222 20.0655 125.608 20.2584C126.022 20.4238 126.862 20.5065 128.13 20.5065C129.37 20.5065 130.197 20.4238 130.611 20.2584C131.024 20.093 131.231 19.8036 131.231 19.3902C131.231 19.0043 131.024 18.7149 130.611 18.522C130.197 18.329 129.384 18.2326 128.171 18.2326C126.876 18.2326 126.022 18.329 125.608 18.522C125.222 18.7149 125.029 19.0043 125.029 19.3902Z" fill="url(#paint1_linear_173_59504)"/>
<path d="M97.6649 31.876C96.4522 31.876 95.4737 31.5177 94.7295 30.801C94.0129 30.0568 93.6546 29.1473 93.6546 28.0723V14.3876C93.6546 13.23 93.9991 12.2515 94.6882 11.4522C95.3773 10.6529 96.3695 10.2532 97.6649 10.2532C98.9328 10.2532 99.8975 10.6529 100.559 11.4522C101.22 12.2515 101.551 13.2575 101.551 14.4703V16.5375H102.295C102.295 14.9664 102.571 13.7261 103.122 12.8165C103.701 11.907 104.432 11.2593 105.314 10.8734C106.196 10.4599 107.078 10.2532 107.96 10.2532C110.082 10.2532 111.639 11.025 112.631 12.5685C113.624 14.0844 114.12 16.2481 114.12 19.0594V28.0723C114.12 29.1473 113.761 30.0568 113.045 30.801C112.328 31.5177 111.363 31.876 110.151 31.876C108.91 31.876 107.918 31.5177 107.174 30.801C106.457 30.0568 106.099 29.1473 106.099 28.0723V20.7545C106.099 19.7623 105.906 18.9905 105.52 18.4393C105.162 17.888 104.624 17.6124 103.908 17.6124C103.081 17.6124 102.475 17.9156 102.089 18.522C101.73 19.1283 101.551 19.9001 101.551 20.8372V28.0723C101.551 29.1473 101.207 30.0568 100.518 30.801C99.8286 31.5177 98.8777 31.876 97.6649 31.876Z" fill="url(#paint2_linear_173_59504)"/>
<path d="M83.3552 5.45736C83.3552 4.27218 83.7135 3.32127 84.4301 2.60465C85.1743 1.86047 86.1941 1.48837 87.4896 1.48837C88.8677 1.48837 89.8875 1.84668 90.549 2.56331C91.238 3.27993 91.5826 4.23083 91.5826 5.41602C91.5826 6.57364 91.238 7.51077 90.549 8.22739C89.8875 8.91645 88.8677 9.26098 87.4896 9.26098C86.139 9.26098 85.1054 8.91645 84.3888 8.22739C83.6997 7.51077 83.3552 6.58742 83.3552 5.45736ZM87.4896 31.876C86.1941 31.876 85.2294 31.5177 84.5955 30.801C83.9616 30.0844 83.6446 29.1886 83.6446 28.1137V13.9742C83.6446 12.789 83.9616 11.8519 84.5955 11.1628C85.2294 10.4737 86.1941 10.1292 87.4896 10.1292C88.785 10.1292 89.7497 10.4737 90.3836 11.1628C91.0451 11.8519 91.3759 12.7614 91.3759 13.8915V28.1137C91.3759 29.1886 91.0313 30.0844 90.3423 30.801C89.6808 31.5177 88.7299 31.876 87.4896 31.876Z" fill="url(#paint3_linear_173_59504)"/>
<path d="M64.8384 31.876C63.6256 31.876 62.6609 31.5177 61.9443 30.801C61.2553 30.0568 60.9107 29.1473 60.9107 28.0723V4.13437C60.9107 2.97674 61.2553 1.99828 61.9443 1.19897C62.6609 0.399655 63.667 0 64.9624 0C66.2303 0 67.1812 0.399655 67.8151 1.19897C68.4766 1.99828 68.8074 2.99052 68.8074 4.17571V16.5375H69.5516C69.5516 14.9664 69.8272 13.7261 70.3784 12.8165C70.9573 11.907 71.6877 11.2593 72.5696 10.8734C73.4792 10.4599 74.4025 10.2532 75.3397 10.2532C76.9934 10.2532 78.2475 10.6667 79.1019 11.4935C79.9839 12.2929 80.5765 13.3678 80.8797 14.7183C81.2105 16.0689 81.3759 17.5435 81.3759 19.1421V28.0723C81.3759 29.2024 81.0038 30.1258 80.2596 30.8424C79.5429 31.5314 78.5783 31.876 77.3655 31.876C76.1252 31.876 75.1467 31.5314 74.4301 30.8424C73.7135 30.1258 73.3552 29.2024 73.3552 28.0723V20.7545C73.3552 19.7623 73.1622 18.9905 72.7764 18.4393C72.3905 17.888 71.8255 17.6124 71.0813 17.6124C70.3371 17.6124 69.7721 17.9156 69.3862 18.522C69.0003 19.1283 68.8074 19.9001 68.8074 20.8372V28.0723C68.8074 29.1473 68.4491 30.0568 67.7324 30.801C67.0434 31.5177 66.0787 31.876 64.8384 31.876Z" fill="url(#paint4_linear_173_59504)"/>
<path d="M51.4614 32C50.0006 32 48.6776 31.6692 47.4925 31.0077C46.3348 30.3463 45.4253 29.4091 44.7638 28.1964C44.1023 26.9561 43.7715 25.509 43.7715 23.8553V16.5788L42.2418 16.7855C41.4149 16.8958 40.6845 16.6064 40.0506 15.9173C39.4167 15.2282 39.0997 14.36 39.0997 13.3127C39.0997 12.2653 39.4167 11.4109 40.0506 10.7494C40.6845 10.0603 41.4149 9.77089 42.2418 9.88114L43.7715 10.0879L43.7302 7.27649C43.7026 6.17399 44.0196 5.30577 44.6811 4.67183C45.3426 4.01034 46.3073 3.67959 47.5751 3.67959C48.843 3.67959 49.8215 4.01034 50.5105 4.67183C51.1996 5.30577 51.5166 6.17399 51.4614 7.27649L51.3788 10.0879L53.57 9.79845C55.0584 9.57795 56.1884 9.85357 56.9602 10.6253C57.7319 11.3695 58.1178 12.2653 58.1178 13.3127C58.1178 14.36 57.7319 15.2696 56.9602 16.0413C56.216 16.7855 55.1273 17.0612 53.694 16.8682L51.3788 16.5788V22.739C51.3788 23.0973 51.5028 23.4281 51.7509 23.7313C51.9989 24.0069 52.3021 24.0896 52.6604 23.9793C53.0738 23.8691 53.5011 23.6348 53.9421 23.2765C54.4106 22.9182 55.0032 22.739 55.7198 22.739C56.7948 22.739 57.6217 23.1249 58.2005 23.8966C58.7793 24.6684 59.0687 25.6193 59.0687 26.7494C59.0687 27.6314 58.7517 28.4858 58.1178 29.3127C57.5114 30.112 56.6432 30.7597 55.5131 31.2558C54.3831 31.7519 53.0325 32 51.4614 32Z" fill="url(#paint5_linear_173_59504)"/>
<path d="M231.108 20.3824C231.108 18.2049 231.535 16.2893 232.389 14.6356C233.271 12.9819 234.512 11.6864 236.11 10.7493C237.737 9.81217 239.666 9.34361 241.898 9.34361C243.635 9.34361 245.192 9.66058 246.57 10.2945C247.976 10.9284 249.078 11.7829 249.878 12.8578C250.677 13.9052 251.077 15.0628 251.077 16.3307C251.077 17.6537 250.691 18.5908 249.919 19.1421C249.147 19.6933 248.003 19.9689 246.488 19.9689H237.805C237.805 20.6856 238.081 21.2781 238.632 21.7467C239.211 22.2153 240.176 22.4495 241.526 22.4495C242.215 22.4495 242.849 22.3806 243.428 22.2428C244.035 22.105 244.641 21.981 245.247 21.8707C245.881 21.7329 246.584 21.664 247.356 21.664C248.458 21.664 249.368 22.0637 250.084 22.863C250.801 23.6347 251.159 24.7097 251.159 26.0878C251.159 27.714 250.319 28.9819 248.637 29.8914C246.984 30.801 244.806 31.2558 242.105 31.2558C240.203 31.2558 238.412 30.8837 236.73 30.1395C235.077 29.3953 233.726 28.2239 232.679 26.6253C231.631 24.9991 231.108 22.9181 231.108 20.3824ZM244.503 18.6046C244.917 18.6046 245.054 18.4117 244.917 18.0258C244.806 17.6399 244.476 17.2402 243.924 16.8268C243.373 16.4134 242.574 16.2067 241.526 16.2067C240.314 16.2067 239.404 16.4685 238.798 16.9922C238.219 17.5159 237.929 18.0533 237.929 18.6046H244.503Z" fill="url(#paint6_linear_173_59504)"/>
<path d="M220.904 31.2558C218.754 31.2558 216.852 30.8148 215.198 29.9328C213.544 29.0232 212.249 27.7415 211.312 26.0878C210.375 24.434 209.906 22.4909 209.906 20.2583C209.906 18.0258 210.375 16.0826 211.312 14.4289C212.249 12.7751 213.544 11.4935 215.198 10.5839C216.879 9.67436 218.809 9.21958 220.986 9.21958C222.695 9.21958 224.197 9.39873 225.493 9.75704C226.816 10.1154 227.849 10.6528 228.594 11.3694C229.365 12.0861 229.751 12.9819 229.751 14.0568C229.751 15.3522 229.42 16.372 228.759 17.1162C228.097 17.8328 227.146 18.1912 225.906 18.1912C225.079 18.1912 224.252 18.0671 223.426 17.8191C222.626 17.571 221.593 17.447 220.325 17.447C219.277 17.447 218.395 17.6123 217.679 17.9431C216.962 18.2738 216.604 18.8802 216.604 19.7622C216.604 20.6718 216.962 21.3333 217.679 21.7467C218.395 22.1326 219.277 22.3255 220.325 22.3255C221.179 22.3255 221.896 22.2428 222.475 22.0775C223.053 21.9121 223.605 21.7467 224.128 21.5813C224.652 21.416 225.245 21.3333 225.906 21.3333C227.312 21.3333 228.345 21.7467 229.007 22.5736C229.696 23.3729 230.041 24.4065 230.041 25.6744C230.041 26.7493 229.641 27.714 228.842 28.5684C228.042 29.3953 226.954 30.0568 225.575 30.5529C224.197 31.0215 222.64 31.2558 220.904 31.2558Z" fill="url(#paint7_linear_173_59504)"/>
<path d="M200.383 4.71311C200.383 3.52793 200.741 2.57702 201.458 1.8604C202.202 1.11622 203.222 0.744122 204.517 0.744122C205.895 0.744122 206.915 1.10243 207.576 1.81906C208.265 2.53568 208.61 3.48658 208.61 4.67177C208.61 5.82939 208.265 6.76652 207.576 7.48314C206.915 8.1722 205.895 8.51673 204.517 8.51673C203.166 8.51673 202.133 8.1722 201.416 7.48314C200.727 6.76652 200.383 5.84317 200.383 4.71311ZM204.517 31.1317C203.222 31.1317 202.257 30.7734 201.623 30.0568C200.989 29.3402 200.672 28.4444 200.672 27.3694V13.2299C200.672 12.0447 200.989 11.1076 201.623 10.4185C202.257 9.72948 203.222 9.38495 204.517 9.38495C205.812 9.38495 206.777 9.72948 207.411 10.4185C208.073 11.1076 208.403 12.0172 208.403 13.1472V27.3694C208.403 28.4444 208.059 29.3402 207.37 30.0568C206.708 30.7734 205.757 31.1317 204.517 31.1317Z" fill="url(#paint8_linear_173_59504)"/>
<path d="M176.224 31.1317C174.625 31.1317 173.316 30.608 172.296 29.5607C171.304 28.5133 170.395 26.7906 169.568 24.3927L166.426 15.049C166.067 14.0017 166.053 12.9405 166.384 11.8656C166.715 10.7906 167.473 10.0602 168.658 9.67435C169.761 9.28848 170.767 9.31604 171.676 9.75704C172.586 10.198 173.22 10.956 173.578 12.0309L176.968 22.1601C177.354 23.3453 177.754 24.1446 178.167 24.5581C178.581 24.9439 179.132 25.0266 179.821 24.8061C180.4 24.6132 180.758 24.1998 180.896 23.5658C181.061 22.9043 180.868 21.7743 180.317 20.1756L178.622 15.049C178.264 13.9741 178.25 12.9129 178.581 11.8656C178.939 10.7906 179.711 10.0602 180.896 9.67435C181.998 9.28848 183.004 9.31604 183.914 9.75704C184.823 10.198 185.457 10.956 185.816 12.0309L189.289 22.6149C189.509 23.2489 189.854 23.8277 190.322 24.3514C190.791 24.875 191.397 25.0266 192.141 24.8061C192.72 24.6132 193.092 24.2273 193.258 23.6485C193.451 23.0697 193.423 22.3944 193.175 21.6227C192.844 20.5753 192.472 19.7484 192.059 19.1421C191.673 18.5357 191.287 18.012 190.901 17.571C190.543 17.13 190.24 16.6614 189.991 16.1653C189.771 15.6692 189.633 14.9939 189.578 14.1395C189.523 13.2575 189.702 12.4857 190.115 11.8242C190.556 11.1352 191.135 10.5977 191.852 10.2118C192.596 9.82594 193.409 9.63301 194.291 9.63301C195.642 9.63301 196.73 10.0878 197.557 10.9974C198.412 11.8793 198.839 12.9267 198.839 14.1395C198.839 14.5805 198.77 15.1593 198.632 15.8759C198.494 16.5925 198.315 17.254 198.095 17.8604L196.358 22.3669C196 23.3591 195.587 24.3789 195.118 25.4263C194.677 26.4461 194.153 27.3832 193.547 28.2377C192.968 29.0921 192.293 29.7949 191.521 30.3462C190.749 30.8699 189.854 31.1317 188.834 31.1317C187.07 31.1317 185.65 30.6769 184.575 29.7674C183.528 28.8578 182.701 27.3557 182.095 25.2609H181.681C181.323 26.9698 180.73 28.3755 179.904 29.478C179.077 30.5805 177.85 31.1317 176.224 31.1317Z" fill="url(#paint9_linear_173_59504)"/>
<path d="M158.032 31.2557C156.571 31.2557 155.248 30.925 154.063 30.2635C152.905 29.602 151.996 28.6649 151.334 27.4521C150.673 26.2118 150.342 24.7648 150.342 23.111V15.8346L148.812 16.0413C147.985 16.1515 147.255 15.8621 146.621 15.1731C145.987 14.484 145.67 13.6158 145.67 12.5684C145.67 11.521 145.987 10.6666 146.621 10.0051C147.255 9.31604 147.985 9.02664 148.812 9.13689L150.342 9.34361L150.301 6.53224C150.273 5.42974 150.59 4.56152 151.251 3.92758C151.913 3.26608 152.878 2.93534 154.146 2.93534C155.413 2.93534 156.392 3.26608 157.081 3.92758C157.77 4.56152 158.087 5.42974 158.032 6.53224L157.949 9.34361L160.14 9.0542C161.629 8.8337 162.759 9.10932 163.531 9.88107C164.302 10.6253 164.688 11.521 164.688 12.5684C164.688 13.6158 164.302 14.5253 163.531 15.2971C162.786 16.0413 161.698 16.3169 160.264 16.124L157.949 15.8346V21.9948C157.949 22.3531 158.073 22.6838 158.321 22.987C158.569 23.2626 158.872 23.3453 159.231 23.2351C159.644 23.1248 160.071 22.8905 160.512 22.5322C160.981 22.1739 161.574 21.9948 162.29 21.9948C163.365 21.9948 164.192 22.3806 164.771 23.1524C165.35 23.9241 165.639 24.875 165.639 26.0051C165.639 26.8871 165.322 27.7415 164.688 28.5684C164.082 29.3677 163.214 30.0154 162.084 30.5116C160.953 31.0077 159.603 31.2557 158.032 31.2557Z" fill="url(#paint10_linear_173_59504)"/>
<defs>
<linearGradient id="paint0_linear_173_59504" x1="854.988" y1="-0.511969" x2="854.988" y2="32.512" gradientUnits="userSpaceOnUse">
<stop stop-color="#2563EB"/>
<stop offset="1" stop-color="#38BDF8"/>
</linearGradient>
<linearGradient id="paint1_linear_173_59504" x1="854.988" y1="-0.511969" x2="854.988" y2="32.512" gradientUnits="userSpaceOnUse">
<stop stop-color="#2563EB"/>
<stop offset="1" stop-color="#38BDF8"/>
</linearGradient>
<linearGradient id="paint2_linear_173_59504" x1="854.988" y1="-0.511969" x2="854.988" y2="32.512" gradientUnits="userSpaceOnUse">
<stop stop-color="#2563EB"/>
<stop offset="1" stop-color="#38BDF8"/>
</linearGradient>
<linearGradient id="paint3_linear_173_59504" x1="854.988" y1="-0.511969" x2="854.988" y2="32.512" gradientUnits="userSpaceOnUse">
<stop stop-color="#2563EB"/>
<stop offset="1" stop-color="#38BDF8"/>
</linearGradient>
<linearGradient id="paint4_linear_173_59504" x1="854.988" y1="-0.511969" x2="854.988" y2="32.512" gradientUnits="userSpaceOnUse">
<stop stop-color="#2563EB"/>
<stop offset="1" stop-color="#38BDF8"/>
</linearGradient>
<linearGradient id="paint5_linear_173_59504" x1="854.988" y1="-0.511969" x2="854.988" y2="32.512" gradientUnits="userSpaceOnUse">
<stop stop-color="#2563EB"/>
<stop offset="1" stop-color="#38BDF8"/>
</linearGradient>
<linearGradient id="paint6_linear_173_59504" x1="854.988" y1="-0.511969" x2="854.988" y2="32.512" gradientUnits="userSpaceOnUse">
<stop stop-color="#2563EB"/>
<stop offset="1" stop-color="#38BDF8"/>
</linearGradient>
<linearGradient id="paint7_linear_173_59504" x1="854.988" y1="-0.511969" x2="854.988" y2="32.512" gradientUnits="userSpaceOnUse">
<stop stop-color="#2563EB"/>
<stop offset="1" stop-color="#38BDF8"/>
</linearGradient>
<linearGradient id="paint8_linear_173_59504" x1="854.988" y1="-0.511969" x2="854.988" y2="32.512" gradientUnits="userSpaceOnUse">
<stop stop-color="#2563EB"/>
<stop offset="1" stop-color="#38BDF8"/>
</linearGradient>
<linearGradient id="paint9_linear_173_59504" x1="854.988" y1="-0.511969" x2="854.988" y2="32.512" gradientUnits="userSpaceOnUse">
<stop stop-color="#2563EB"/>
<stop offset="1" stop-color="#38BDF8"/>
</linearGradient>
<linearGradient id="paint10_linear_173_59504" x1="854.988" y1="-0.511969" x2="854.988" y2="32.512" gradientUnits="userSpaceOnUse">
<stop stop-color="#2563EB"/>
<stop offset="1" stop-color="#38BDF8"/>
</linearGradient>
</defs>
</svg>